{
  "accessors": [
    {
      "bufferView": 2,
      "componentType": 5126,
      "count": 65532,
      "max": [
        5.595520973205566,
        1.180946707725525,
        4.052175521850586
      ],
      "min": [
        -5.596946716308594,
        -1.4725849628448486,
        -4.0289788246154785
      ],
      "type": "VEC3"
    },
    {
      "bufferView": 2,
      "byteOffset": 786384,
      "componentType": 5126,
      "count": 65532,
      "max": [
        1.0,
        1.0,
        1.0
      ],
      "min": [
        -1.0,
        -1.0,
        -1.0
      ],
      "type": "VEC3"
    },
    {
      "bufferView": 1,
      "componentType": 5126,
      "count": 65532,
      "max": [
        1.000000238418579,
        1.0000003576278687
      ],
      "min": [
        0.0,
        0.0
      ],
      "type": "VEC2"
    },
    {
      "bufferView": 0,
      "componentType": 5125,
      "count": 339309,
      "type": "SCALAR"
    },
    {
      "bufferView": 2,
      "byteOffset": 1572768,
      "componentType": 5126,
      "count": 16155,
      "max": [
        5.595520973205566,
        1.0045573711395264,
        0.65315842628479
      ],
      "min": [
        -5.596946716308594,
        0.8026643991470337,
        -0.6531595587730408
      ],
      "type": "VEC3"
    },
    {
      "bufferView": 2,
      "byteOffset": 1766628,
      "componentType": 5126,
      "count": 16155,
      "max": [
        1.0,
        1.0,
        1.0
      ],
      "min": [
        -1.0,
        -1.0,
        -1.0
      ],
      "type": "VEC3"
    },
    {
      "bufferView": 1,
      "byteOffset": 524256,
      "componentType": 5126,
      "count": 16155,
      "max": [
        1.000000238418579,
        1.000000238418579
      ],
      "min": [
        0.0,
        0.0
      ],
      "type": "VEC2"
    },
    {
      "bufferView": 0,
      "byteOffset": 1357236,
      "componentType": 5125,
      "count": 89199,
      "type": "SCALAR"
    },
    {
      "bufferView": 2,
      "byteOffset": 1960488,
      "componentType": 5126,
      "count": 2248,
      "max": [
        1.423247218132019,
        0.44770774245262146,
        1.003692865371704
      ],
      "min": [
        -1.4232473373413086,
        -1.0533268451690674,
        -1.42324697971344
      ],
      "type": "VEC3"
    },
    {
      "bufferView": 2,
      "byteOffset": 1987464,
      "componentType": 5126,
      "count": 2248,
      "max": [
        0.9992905855178833,
        0.9762795567512512,
        0.999108076095581
      ],
      "min": [
        -0.9992905855178833,
        -0.9987726211547852,
        -0.9972580075263977
      ],
      "type": "VEC3"
    },
    {
      "bufferView": 1,
      "byteOffset": 653496,
      "componentType": 5126,
      "count": 2248,
      "max": [
        0.5833687782287598,
        0.5815657377243042
      ],
      "min": [
        0.1009480282664299,
        0.11341050267219543
      ],
      "type": "VEC2"
    },
    {
      "bufferView": 0,
      "byteOffset": 1714032,
      "componentType": 5125,
      "count": 10248,
      "type": "SCALAR"
    },
    {
      "bufferView": 2,
      "byteOffset": 2014440,
      "componentType": 5126,
      "count": 38998,
      "max": [
        7.877863883972168,
        1.7918510437011719,
        3.815497875213623
      ],
      "min": [
        -7.848300933837891,
        -1.262366771697998,
        -3.8585023880004883
      ],
      "type": "VEC3"
    },
    {
      "bufferView": 2,
      "byteOffset": 2482416,
      "componentType": 5126,
      "count": 38998,
      "max": [
        0.9999958276748657,
        0.9999997615814209,
        1.0
      ],
      "min": [
        -0.9999958276748657,
        -0.9999995231628418,
        -1.0
      ],
      "type": "VEC3"
    },
    {
      "bufferView": 1,
      "byteOffset": 671480,
      "componentType": 5126,
      "count": 38998,
      "max": [
        1.0000001192092896,
        1.0000003576278687
      ],
      "min": [
        0.0,
        0.0
      ],
      "type": "VEC2"
    },
    {
      "bufferView": 0,
      "byteOffset": 1755024,
      "componentType": 5125,
      "count": 187104,
      "type": "SCALAR"
    },
    {
      "bufferView": 2,
      "byteOffset": 2950392,
      "componentType": 5126,
      "count": 3645,
      "max": [
        1.4557874202728271,
        0.6774422526359558,
        1.4645527601242065
      ],
      "min": [
        -1.4557873010635376,
        -0.9914078116416931,
        -1.4557870626449585
      ],
      "type": "VEC3"
    },
    {
      "bufferView": 2,
      "byteOffset": 2994132,
      "componentType": 5126,
      "count": 3645,
      "max": [
        0.9992905855178833,
        0.9784677028656006,
        0.9999967813491821
      ],
      "min": [
        -0.9992905855178833,
        -0.9987861514091492,
        -0.9992905855178833
      ],
      "type": "VEC3"
    },
    {
      "bufferView": 1,
      "byteOffset": 983464,
      "componentType": 5126,
      "count": 3645,
      "max": [
        0.6643900275230408,
        0.6670808792114258
      ],
      "min": [
        0.14052778482437134,
        0.14540579915046692
      ],
      "type": "VEC2"
    },
    {
      "bufferView": 0,
      "byteOffset": 2503440,
      "componentType": 5125,
      "count": 18432,
      "type": "SCALAR"
    },
    {
      "bufferView": 2,
      "byteOffset": 3037872,
      "componentType": 5126,
      "count": 18222,
      "max": [
        5.482607841491699,
        1.4227081537246704,
        1.21780526638031
      ],
      "min": [
        -5.453045845031738,
        1.0433613061904907,
        -1.217810869216919
      ],
      "type": "VEC3"
    },
    {
      "bufferView": 2,
      "byteOffset": 3256536,
      "componentType": 5126,
      "count": 18222,
      "max": [
        1.0,
        1.0,
        0.9999959468841553
      ],
      "min": [
        -1.0,
        -1.0,
        -0.9999959468841553
      ],
      "type": "VEC3"
    },
    {
      "bufferView": 1,
      "byteOffset": 1012624,
      "componentType": 5126,
      "count": 18222,
      "max": [
        1.000000238418579,
        1.0000001192092896
      ],
      "min": [
        0.0,
        0.0
      ],
      "type": "VEC2"
    },
    {
      "bufferView": 0,
      "byteOffset": 2577168,
      "componentType": 5125,
      "count": 98064,
      "type": "SCALAR"
    },
    {
      "bufferView": 2,
      "byteOffset": 3475200,
      "componentType": 5126,
      "count": 2434,
      "max": [
        0.7191771864891052,
        1.244928240776062,
        1.1980538368225098
      ],
      "min": [
        -0.8186612725257874,
        1.2050645351409912,
        -1.198059320449829
      ],
      "type": "VEC3"
    },
    {
      "bufferView": 2,
      "byteOffset": 3504408,
      "componentType": 5126,
      "count": 2434,
      "max": [
        0.9925441145896912,
        0.9999984502792358,
        0.9942837357521057
      ],
      "min": [
        -0.9925409555435181,
        -0.9999990463256836,
        -0.9942837357521057
      ],
      "type": "VEC3"
    },
    {
      "bufferView": 1,
      "byteOffset": 1158400,
      "componentType": 5126,
      "count": 2434,
      "max": [
        0.0,
        0.0
      ],
      "min": [
        0.0,
        0.0
      ],
      "type": "VEC2"
    },
    {
      "bufferView": 0,
      "byteOffset": 2969424,
      "componentType": 5125,
      "count": 13824,
      "type": "SCALAR"
    }
  ],
  "asset": {
    "extras": {
      "author": "Radhlya (https://sketchfab.com/Radhlya)",
      "license": "CC-BY-4.0 (http://creativecommons.org/licenses/by/4.0/)",
      "source": "https://sketchfab.com/3d-models/staff-of-homa-genshin-impact-7b1a289d658841fb9dae3f793fc43bbb",
      "title": "Staff of Homa - Genshin Impact"
    },
    "generator": "Sketchfab-12.66.0",
    "version": "2.0"
  },
  "bufferViews": [
    {
      "buffer": 0,
      "byteLength": 3024720,
      "name": "floatBufferViews",
      "target": 34963
    },
    {
      "buffer": 0,
      "byteLength": 1177872,
      "byteOffset": 3024720,
      "byteStride": 8,
      "name": "floatBufferViews",
      "target": 34962
    },
    {
      "buffer": 0,
      "byteLength": 3533616,
      "byteOffset": 4202592,
      "byteStride": 12,
      "name": "floatBufferViews",
      "target": 34962
    }
  ],
  "buffers": [
    {
      "byteLength": 7736208,
      "uri": "scene.bin"
    }
  ],
  "images": [
    {
      "uri": "textures/Material.006_baseColor.png"
    }
  ],
  "materials": [
    {
      "doubleSided": true,
      "name": "Material.004",
      "pbrMetallicRoughness": {
        "baseColorFactor": [
          0.381326,
          0.258183,
          0.181164,
          1.0
        ],
        "metallicFactor": 0.0,
        "roughnessFactor": 0.5
      }
    },
    {
      "doubleSided": true,
      "name": "Material.005",
      "pbrMetallicRoughness": {
        "baseColorFactor": [
          0.0368894,
          0.0103298,
          0.0137021,
          1.0
        ],
        "metallicFactor": 0.0,
        "roughnessFactor": 0.5
      }
    },
    {
      "doubleSided": true,
      "name": "Material.001",
      "pbrMetallicRoughness": {
        "baseColorFactor": [
          0.4735309999999999,
          0.03189599999999999,
          0.033104799999999955,
          1.0
        ],
        "metallicFactor": 0.0,
        "roughnessFactor": 0.5
      }
    },
    {
      "doubleSided": true,
      "name": "Material.006",
      "pbrMetallicRoughness": {
        "baseColorTexture": {
          "index": 0
        },
        "metallicFactor": 0.0,
        "roughnessFactor": 0.5
      }
    },
    {
      "doubleSided": true,
      "name": "Material.002",
      "pbrMetallicRoughness": {
        "baseColorFactor": [
          0.0578054,
          0.0159963,
          0.0307134,
          1.0
        ],
        "metallicFactor": 0.0,
        "roughnessFactor": 0.5
      }
    },
    {
      "doubleSided": true,
      "emissiveFactor": [
        0.637597,
        0.533276,
        0.473531
      ],
      "name": "Material.003"
    }
  ],
  "meshes": [
    {
      "name": "Object_0",
      "primitives": [
        {
          "attributes": {
            "NORMAL": 1,
            "POSITION": 0,
            "TEXCOORD_0": 2
          },
          "indices": 3,
          "material": 0,
          "mode": 4
        }
      ]
    },
    {
      "name": "Object_1",
      "primitives": [
        {
          "attributes": {
            "NORMAL": 5,
            "POSITION": 4,
            "TEXCOORD_0": 6
          },
          "indices": 7,
          "material": 0,
          "mode": 4
        }
      ]
    },
    {
      "name": "Object_2",
      "primitives": [
        {
          "attributes": {
            "NORMAL": 9,
            "POSITION": 8,
            "TEXCOORD_0": 10
          },
          "indices": 11,
          "material": 1,
          "mode": 4
        }
      ]
    },
    {
      "name": "Object_3",
      "primitives": [
        {
          "attributes": {
            "NORMAL": 13,
            "POSITION": 12,
            "TEXCOORD_0": 14
          },
          "indices": 15,
          "material": 2,
          "mode": 4
        }
      ]
    },
    {
      "name": "Object_4",
      "primitives": [
        {
          "attributes": {
            "NORMAL": 17,
            "POSITION": 16,
            "TEXCOORD_0": 18
          },
          "indices": 19,
          "material": 3,
          "mode": 4
        }
      ]
    },
    {
      "name": "Object_5",
      "primitives": [
        {
          "attributes": {
            "NORMAL": 21,
            "POSITION": 20,
            "TEXCOORD_0": 22
          },
          "indices": 23,
          "material": 4,
          "mode": 4
        }
      ]
    },
    {
      "name": "Object_6",
      "primitives": [
        {
          "attributes": {
            "NORMAL": 25,
            "POSITION": 24,
            "TEXCOORD_0": 26
          },
          "indices": 27,
          "material": 5,
          "mode": 4
        }
      ]
    }
  ],
  "nodes": [
    {
      "children": [
        1
      ],
      "matrix": [
        1.0,
        0.0,
        0.0,
        0.0,
        0.0,
        2.220446049250313e-16,
        -1.0,
        0.0,
        0.0,
        1.0,
        2.220446049250313e-16,
        0.0,
        0.0,
        0.0,
        0.0,
        1.0
      ],
      "name": "Sketchfab_model"
    },
    {
      "children": [
        2
      ],
      "name": "root"
    },
    {
      "children": [
        3
      ],
      "matrix": [
        1.0,
        0.0,
        0.0,
        0.0,
        0.0,
        2.220446049250313e-16,
        1.0,
        0.0,
        0.0,
        -1.0,
        2.220446049250313e-16,
        0.0,
        0.0,
        0.0,
        0.0,
        1.0
      ],
      "name": "GLTF_SceneRootNode"
    },
    {
      "children": [
        4,
        5,
        6,
        7,
        8,
        9,
        10
      ],
      "matrix": [
        0.0480051152408123,
        0.0,
        0.0,
        0.0,
        0.0,
        1.8504211902618408,
        0.0,
        0.0,
        0.0,
        0.0,
        0.04800510033965111,
        0.0,
        0.0028652772307395935,
        0.007631697226315737,
        0.0,
        1.0
      ],
      "name": "Homa_0"
    },
    {
      "mesh": 0,
      "name": "Object_4"
    },
    {
      "mesh": 1,
      "name": "Object_5"
    },
    {
      "mesh": 2,
      "name": "Object_6"
    },
    {
      "mesh": 3,
      "name": "Object_7"
    },
    {
      "mesh": 4,
      "name": "Object_8"
    },
    {
      "mesh": 5,
      "name": "Object_9"
    },
    {
      "mesh": 6,
      "name": "Object_10"
    }
  ],
  "samplers": [
    {
      "magFilter": 9729,
      "minFilter": 9987,
      "wrapS": 10497,
      "wrapT": 10497
    }
  ],
  "scene": 0,
  "scenes": [
    {
      "name": "Sketchfab_Scene",
      "nodes": [
        0
      ]
    }
  ],
  "textures": [
    {
      "sampler": 0,
      "source": 0
    }
  ]
}
